# xmcd CD database file
#
# Track frame offsets:
#	150
#	18553
#	41298
#	56384
#	75449
#	92467
#	109638
#	124720
#	141195
#	159059
#	178912
#	198167
#	214270
#
# Disc length: 3050 seconds
#
# Revision: 0
# Processed by: cddbd v1.4PL0 Copyright (c) Steve Scherf et al.
# Submitted via: CDex 1.50beta10
#
DISCID=9c0be80d
DTITLE=Silje Nergaard - At first light
DYEAR=1900
DGENRE=Jazz
TTITLE0=Always a first time
TTITLE1=Be still my heart
TTITLE2=Let there be love
TTITLE3=So sorry for your love
TTITLE4=Two sleepy people
TTITLE5=Keep on backing losers
TTITLE6=Blame it on the sun
TTITLE7=Lullaby to Erle
TTITLE8=At first light
TTITLE9=Japanese blues
TTITLE10=Now and then
TTITLE11=There's trouble brewing
TTITLE12=Dream a little dream
EXTD=
EXTT0=
EXTT1=
EXTT2=
EXTT3=
EXTT4=
EXTT5=
EXTT6=
EXTT7=
EXTT8=
EXTT9=
EXTT10=
EXTT11=
EXTT12=
PLAYORDER=
